<svg xmlns="http://www.w3.org/2000/svg" viewBox="0 0 3333 2018" shape-rendering="geometricPrecision" text-rendering="geometricPrecision" image-rendering="optimizeQuality" fill-rule="evenodd" clip-rule="evenodd"><path d="M3167 163c4-12 5-23 5-33 0-8-1-15-4-19s-10-8-20-11c-11-3-26-5-44-5h-354c-34 0-57 8-74 21s-28 31-37 51l-1 1c-13 32-192 455-443 736l-2 2c-44 44-76 73-104 91-34 23-62 31-95 31-27 0-61-16-82-54-12-22-21-53-21-94V178c0-35-4-59-13-71-6-8-19-12-40-12h-557c-14 0-25 4-32 11s-11 15-11 23c0 16 14 33 32 55 42 53 100 124 109 287v525c0 66-7 106-22 133-21 39-51 49-91 49-79 0-202-127-325-325-108-174-221-406-305-652 0-1-1-2-1-4-14-40-27-67-44-83-15-13-36-20-69-20H168c-36 0-56 6-65 16-7 8-9 22-9 37 0 54 44 241 176 520 85 179 206 392 374 628 139 200 306 355 483 461 183 110 376 167 559 167 103 0 158-10 185-28 18-12 21-34 21-62v-318c0-62 8-101 30-128 25-31 60-40 110-40 33 0 76 8 141 45 58 34 137 93 245 197l1 1c72 72 126 132 171 182 94 104 137 152 211 152h354c19 0 34-2 47-6s23-9 29-17c5-7 8-17 8-29 0-11-2-23-6-37-14-45-49-101-97-167-50-68-116-146-192-231-1-1-1-2-2-2-40-48-91-98-137-142-46-45-86-84-107-114-34-44-46-79-44-114 3-34 18-61 41-97 1-2 3-4 4-5 33-47 425-605 467-794 0-2 1-3 1-5zm100-33c0 19-3 39-9 60-47 209-449 780-482 827l-1 1c-15 24-26 42-27 55-1 11 6 26 24 49 0 1 1 1 1 2 16 22 54 60 98 103 47 46 100 98 142 148l1 1c77 86 144 166 197 238 55 74 94 139 111 194v1c7 24 10 45 10 65 0 35-10 64-29 88-18 23-44 39-76 49-22 6-46 10-73 10h-354c-116 0-168-58-281-184-43-48-96-107-167-178-102-98-174-153-226-183-46-27-74-32-94-32-21 0-33 1-36 5-7 8-9 30-9 69v318c0 58-10 105-63 141-43 29-114 44-237 44-200 0-410-62-607-180-188-113-365-277-512-488-172-241-295-459-382-641C47 419 0 213 0 152c0-37 8-73 36-102C62 23 104 5 169 5h354c58 0 99 14 132 45 30 28 50 67 69 121 1 1 1 3 2 4 82 240 192 465 296 634 106 171 199 280 245 280h9c7-12 10-39 10-88V479c-8-131-54-189-88-231-30-37-53-65-53-115 0-34 15-68 43-93 24-21 56-35 95-35h557c54 0 91 16 116 51 22 30 31 72 31 127v702c0 24 4 39 9 49 2 4-2 5 0 5 13 0 26-4 43-16 22-15 50-40 89-79 240-270 413-679 425-708 0-1 1-2 1-2 14-33 35-65 67-89s74-40 131-40h354c27 0 51 3 71 9 31 9 53 25 69 46 16 22 23 47 23 74z" fill-rule="nonzero"/></svg>